<svg width="500" height="500" version="1.1" xmlns="http://www.w3.org/2000/svg">
 <path d="m0 0h500v500h-500v-500z" fill="#0f230d"/>
 <path d="m188.25 43.992c17.534 10.088 30.291 27.346 45.974 40.254 13.711 11.206 39.403 3.2052 55.861 4.4544 18.164-12.152 34.584-50.387 56.868-40.599 9.1131 25.204 9.4193 53.105 5.2762 79.392 1.7414 15.962 34.134 34.909 17.892 46.444-17.271 2.6785 14.914 14.192 6.6565 26.12 12.935 17.335 6.9975 38.408 28.401 49.259 14.331 16.862 22.713 33.241 31.064 53.798 5.9069 21.241 10.554 48.271-6.246 65.886 23.863-.84953 3.9313 16.756-9.9626 10.288-26.781.33687-53.653-.83465-80.375.38732-13.805 12.76-34.893 7.2146-47.162 5.8246-14.572 5.6601-19.205-13.698-35.885-7.5-15.263-4.2456-10.159 6.806-7.7354 16.87-.22949 25.814 37.039 7.696 53.919 13.478 24.357 4.3785 29.216-37.329 55.201-24.348 1.6192 25.666-25.669 53.797-50.901 58.435-69.435.51291-138.96-1.1978-208.41-2.4427-2.972-9.7003.30187-19.152-12.688-22.992-9.9024-17.042-1.0198-42.454-26-41 2.5564-11.669 22.597-.84179 12.343-19.238-3.872-19.355-18.324-58.165 15.919-52.04 22.58-.23421 45.159-.49234 67.738-.72158-12.477-7.7551-11.417-27.849-18-33 8.4931 29.735-30.894 35.323-49.924 23.093.18267-14.021-27.169-7.7947-20.076-29.093-.97424-12.144 5.244-23.147 11.735-29.422-11.373-13.685-3.9173-41.416 18.617-38.373 23.244-6.1605 61.935 5.5284 44.648 34.795-5.8832 15.575 23.53 20.203 8 39 .95827 11.432 15.16-20.943 23.772-25.745 18.182-11.097 15.698-19.148-3.3618-26.183-18.887-6.3119 10.91-21.728-12.28-22.653-12.814-10.398 24.943-22.717-2.028-23.563-5.7522-18.656 29.135-32.355 19.108-53.562-1.0747-22.963-5.6522-48.419 3.3725-70 1.4271-3.2742 4.9717-5.9048 8.6706-5.3027z" fill="#7ce7a3"/>
 <path d="m187 52c20.41 13.819 34.464 43.868 58 48 23.335-6.9468 49.999 10.642 63.676-17.358 11.426-8.0077 35.572-48.745 34.814-14.763 5.1233 21.776.87053 44.078.15337 65.675 11.658 15.514 30.366 35.674 4.8826 37.907 6.4452 10.488 24.356 21.29 1.6105 23.264-18.775 4.1449 17.888 19.648-6.8648 21.165-24.653 11.904-47.992 26.43-68.301 44.896-3.3968 9.966-23.514 10.021-6.166.34504 9.3486-15.86 29.473-32.428 37.854-41.156-23.163-10.708-27.597 38.674-51.533 22.646-9.8707-9.5426 34.935-32.272.99756-32.986-15.606-4.0321-39.108 3.5301-19.585 19.744 18.22 6.08 3.4577 18.101-8.5376 17.621-11.597-16.231-14.226-33.423-.9169-50.111 17.9-15.371 6.3862-57.016-19.003-38.817-15.765 13.917 6.0545 30.647 11.834 35.302-2.3502 13.291-17.701 26.531-6.9141 39.625-14.242-9.9987-47.377-16.736-29.555-35.774-7.0489-6.6323-23.666-6.0671-6.3379-17.555 20.835-15.879-17.648-7.4584-7.1367-19.88 23.406-20.147 12.972-46.143 11.885-72.249.85436-11.754.95157-24.705 5.1439-35.543z" fill="#0f260d"/>
 <path d="m366 200c12.436 11.848 19.399 35.332-5.315 35.636-23.182 10.96-45.995 23.016-70.685 30.364.73964 16.169 32.562-6.7771 44.378-8.6644 21.128-10.925 49.34-31.161 65.059-1.5646 18.821 24.551 34.83 54.652 33.684 86.292-1.7834 32.523-36.972 29.516-60.385 27.981-6.9726-7.9032-9.2797-31.29-25.736-34.459 14.216-8.6096 43.604-5.4015 50-20.586-18.583 5.3685-29.473 3.4776-31.359-18.255-4.7947-22.065-14.957-4.2311-5.1412 9.0051 15.704 22.248-20.273 22.335-33.31 28.834-25.848-6.7124-45.933 13.306-53.604 34.416h-29.586c-10.671-19.123-.12327-55.812-23.516-63.433-17.61 2.9753-23.667-2.9857-18.607-20.083-2.3617-26.945-10.96 9.1764-9.877 19.517-17.22 8.6676-45.283-8.2846-32.272-26.315 14.049-15.233 30.967-55.791 53.897-35.373 14.564 16.484 36.05 25.406 52.416 36 27.503-28.319 62.67-48.109 97.959-65.313-1.1579-8.4313-16.557-16.375 2-14z" fill="#0f250d"/>
 <path d="m80.719 313.85c47.336.44291 95.06-1.5625 142.17.36671 9.1455 20.667 9.2756 45.019 15.042 67.134 2.6574 15.667 13.172 40.837-12.977 32.713-43.267-.24151-86.657.88704-129.85-.17687-10.412-20.599-10.114-46.98-16.9-69.663.64103-7.6724-12.561-32.304 2.5099-30.374z" fill="#0f250d"/>
 <path d="m110.12 196.62c30.06-6.8381 44.504 20.182 31.988 44.074 14.387 5.2224 13.117 22.716 8.8867 36.301 12.684-17.54 9.4646 4.415 6 13 5.6959 14.631 15.655 16.793 29.799 15 13.071 1.604-.68141-38.568 16.369-27.667 1.9483 13.577-11.334 35.204 12.506 27.403 18.062-5.3065 15.721 21.265 3.0835 10.264h-143.76c1.8497 32.183 14.243 62.938 16 95-9.3443 17.854-11.006-18.538-13.324-26.848.1557-5.8906-29.199-4.8686-12.396-13.218 20.246.40665-2.0467-34.075.0055-48.827 2.7326-29.363 44.448-11.618 65.337-16.84 15.397.45263 33.809 2.442 15.318-14.231-5.183-5.7824-5.618-31.54-7.9145-10.69 4.4136 26.309-51.261 28.63-52.027 5.6546-25.178 3.5814-21.147-35.585-9-46 5.1046-5.483-9.5518-25.809 2.75-36.188 9.2059-5.1719 20.009-6.225 30.375-6.1875z" fill="#7be5a3"/>
 <path d="m188.25 43.992c17.534 10.088 30.291 27.346 45.974 40.254 13.681 11.343 39.202 2.9494 55.731 4.591 7.3759-10.281 25.598-25.206 23.836-10.53-12.762 21.166-30.621 26.466-53.488 20.416-26.76 12.31-40.251-17.225-58.245-31.66-7.6644-8.9453-18.822-22.029-17.167-1.0231-9.8265 25.666 10.662 54.273-2.9576 77.211-5.318 11.189-24.472 25.481-2.1454 24.553 13.44 8.3563-25.019 22.839-.73744 24.889 17.131 6.4357-15.9 21.353 7.412 23.848 12.211 5.3649 29.557 25.657 22.078 1.601 5.5572-15.236 20.482-29.282-1.5442-34.141-23.626-26.883 33.204-46.786 30.403-10.644-1.1555 21.504-30.743 41.166-13.882 62.063-.42698 23.214 39.501-.099 11.525-6.2766-32.543-25.75 51.417-31.293 31.06-4.4095-12.762 5.8465-20.874 21.061.29133 19.565 12.517-.28465 26.325-40.386 41.728-22.674-18.217 5.7304-27.335 31.918-42.008 40.271-3.2808-5.6717-32.98-2.7669-26.433.99875 2.6205 7.9032-21.649-15.443-27.933-20.207-19.01-17.355-34.239 17.937-46.61 29.365-21.447 2.5912 10.39-30.013 21.025-37.421 12.279-10.982-41.106-16.877-15.165-33.631-24.168-1.2338-7.176-20.468-4.5547-25.586-25.831-3.9756 5.3378-28.841 10.294-40.966.13241-21.889-4.0832-45.076-1.8557-67.663.0965-8.2899 2.7315-22.666 13.37-22.793z" fill="#7ce7a4"/>
 <path d="m136.19 341.54c23.598-2.1818 52.523-3.6156 49.182 28.624 10.02 28.886-27.745 18.349-43.727 20.317-20.085.79523-25.222-37.03-16.055-48.256 3.4328-1.1248 7.0691-.71013 10.6-.68434z" fill="#7ce6a4"/>
 <path d="m245 378h30c5.8706 13.63 23.141 3.8029 34.032 8.2414 9.4751 2.0042 22.624-.78084 30.968-6.2414-1.7266 4.5834 29.979.58012 7.4217 2.834-21.458 6.4909-31.117 36.045-59.117 25.626-21.139.39517-45.646 4.7392-43.305-24.46v-6z" fill="#103711"/>
 <path d="m105 423h205c3.8298 12.625-10.886 6.7038-18.385 8h-186.62v-8z" fill="#0e240c"/>
 <path d="m87 235c12.833 10.301 45.412-9.4583 47 7-21.335 3.4108-7.8845 24.57-3.4383 33.005 5.9669 25.848-54.724 21.093-31.269-2.8727.12636-17.441.65868-26.574-12.292-37.132z" fill="#102d0f"/>
 <path d="m352.42 348.68c10.136 6.325 14.041 27.05-2.7356 21.316-13.086 5.5918 4.7988-22.342-12.061-6.5625-3.4412 12.526-25.212 23.41-13.312 4.0625 12.095-8.667 5.7722-25.068-3.8564-8.5781-2.4516 10.441-25.352 32.449-16.142 9.8268 7.8834-7.4215 19.21-32.847 1.3113-16.561-3.9256 10.592-26.661 40.374-20.941 13.243 8.555-28.906 45.944-30.212 67.738-16.747z" fill="#0e2d0e"/>
 <path d="m130 350h42c3.9371 15.808 12.615 37.282-10.971 31-8.3992-2.069-23.218 4.6836-26.47-4.4584-2.6237-8.5882-4.519-17.528-4.5592-26.542z" fill="#10290f"/>
 <path d="m88 232c8.499 5.895 48.597 4.8048 19.438 6.0806-10.394-1.7152-31.383-3.6753-11.743 4.2752 7.4403 5.9369 3.4873 33.705 2.3799 30.273-.03631-5.0054-12.986 9.6448-17.628 7.7133 13.851 13.405-25.077-2.1936-11.647-17.211-3.5555-12.809 7.2332-20.631 11.2-28.373.052564-1.0699 3.4352 10.871 6-1.7574l1.2649-.63246z" fill="#7be6a3"/>
 <path d="m304.44 154.1c31.412 14.298-11.594 56.891-24.849 25.319-7.7538-14.766 10.037-32.301 24.849-25.319z" fill="#7ceaa6"/>
 <path d="m245 378h30c4.7505 8.3693-10.126 19.483 10.188 12.812 15.617 4.9499-10.822 17.04-21.078 15.617-17.711 6.4846-17.127-14.253-19.11-26.673v-1.7574z" fill="#103010"/>
 <path d="m197.29 76.569c8.5319 7.0553 36.605 24.767 25.711 33.431-11.64-7.6283-23.216-14.809-18.026 4.7377-11.849 24.927-17.682-29.885-7.6857-38.168z" fill="#7ce8a5"/>
 <path d="m335 77c4.5687 10.924 5.3037 52.938-10.087 38.941 1.9013-13.049 1.6028-21.698-11.979-9.5147-30.734 14.503 16.019-34.188 22.065-29.426z" fill="#7ceaa6"/>
 <path d="m87 235c12.833 10.301 45.412-9.4583 47 7-21.404-4.1305-5.9211 45.081-13.8 30.4-3.08-2.2388-25.348-2.6359-11-5.8 8.5919-.70228 6.8115-40.214-2.6014-15.133-7.9841 16.547-8.4699 6.2943-8.7275-5.5376-1.9187-6.3053-12.952-3.9838-10.871-10.93z" fill="#0d2c0c"/>
 <path d="m274 384c15.023 3.1594 31.112-.74042 43 4-4.5726.55804-31.371 9.3886-16.757 14 13.915-2.9823 18.956 6.706.0749 4.7692-9.7923-.0767-36.546 1.419-38.489-.76925 15.314.66465 10.641-5.0127 26.922-7.8127 11.685-19.602-26.285 7.8247-14.75-14.187z" fill="#0b280b"/>
 <path d="m112.81 142.5c3.9414 12.14 18.698 44.513-5.8125 48.5 7.1494-14.505-3.903-27.471-2.3165-42.173 1.5045-3.223 4.5512-5.7909 8.129-6.3266z" fill="#7be5a2"/>
 <path d="m105 423h204c-6.4823 2.3685-17.306.41728-25.456 1.1266-58.515.29112-117.03.58224-175.54.87336 7.6788 12.423 44.368.99421 62.478 4.8172 45.501-.44083 91.047.25642 136.52-.8172 8.1886-1.8317-8.2169 4.8929-14.971 2h-187.03v-8z" fill="#002d01"/>
 <path d="m83 218c16.996 7.1638 42.733-.0549 55 2.8284-8.7014 13.442-37.333 10.098-53 5.1716-3.7942-.69934-1.2788-5.3654-2-8z" fill="#103211"/>
 <path d="m305 134c2.8342 12.251-24.47 27.74-35 26 4.9066-11.534 22.917-23.171 35-26z" fill="#7ce5a1"/>
 <path d="m213 134c10.329 4.2162 43.003 25.064 23.469 25.72-6.877-7.4005-29.564-13.308-23.469-25.72z" fill="#7ce2a2"/>
 <path d="m110.19 205.75c12.295-2.0439 37.628 4.4716 12.638 8.1402-9.8418 3.5134-54.068-2.9236-25.046-8.0718 4.1319-.2845 8.2722-.0538 12.408-.0684z" fill="#0e3210"/>
 <path d="m350 392c-3.658 10.984-26.071 37.413-32.452 32.998 6.5818-11.136 19.203-28.855 32.452-32.998z" fill="#0d330f"/>
 <path d="m258 384c22.224-6.7539 12.216 17.179-4 17-5.7387-8.6428-.0418-11.133 4-17z" fill="#7ce8a5"/>
 <path d="m97 268c2.1042 8.4955-3.888 21.324.17157 23-2.5027 7.1867-12.76 1.2786-14.609-7.75-13.059-9.4196 15.413-2.4216 14.438-15.25z" fill="#7deaa6"/>
 <path d="m265 253c-6.6772 19.588-45.274-3.7282-15.119-4.081 5.2411.47713 10.179 2.413 15.119 4.081z" fill="#103412"/>
 <path d="m110 242c15.935 1.3053-2.0911 43.878-6.4375 15.875.42017-5.9251 5.6785-9.8672 6.4375-15.875z" fill="#7be1a2"/>
 <path d="m135.81 249.56c24.893 1.8106-3.3936 26.549-7.1666 6.4832-1.893-4.5924 3.6656-7.1799 7.1666-6.4832z" fill="#103412"/>
 <path d="m248 380c7.9816 1.2358 19.057-2.5343 25 2-7.334 4.114-24.517 1.6821-21 17-8.6019-1.6169-3.6936-13.505-4-19z" fill="#0e290d"/>
 <path d="m319 391c1.1332 18.126-37.389 9.637-13.234-.16197 4.3933-.79116 8.8379-.14054 13.234.16197z" fill="#7deea8"/>
 <path d="m292 391c-.45941 20.546-36.347 5.494-9.4502-.52581l4.737.11487z" fill="#7ee7a4"/>
 <path d="m82.312 265.75c25.998 1.3483-10.302 25.134-6.3125 1.25l2.9229-1.2573z" fill="#0c290c"/>
 <path d="m88 247c17.233 17.221-28.755 10.997-5.1113-.31593z" fill="#0c2a0a"/>
 <path d="m109.73 269.86c19.465-2.5241 8.9406 13.327-3.8687 8.1367-7.7449 2.3003-1.4174-12.35 3.8687-8.1367z" fill="#7fe3a2"/>
 <path d="m224 171c15.481 25.642-29.765 6.0252 0 0z" fill="#102e0e"/>
 <path d="m294.56 172.19c22.854 18.592-26.939 11.626 0 0z" fill="#0e310e"/>
 <path d="m369 357c-.17229 12.557 12.849 10.387 24.207 10.53 4.3503-.0622 26.407.16883 14.551 2.4698h-38.757v-13z" fill="#215629"/>
 <path d="m279 249c6.4532 5.2322-14.15 27.037-18 17 7.5151-3.7503 13.913-9.6325 18-17z" fill="#0e3d12"/>
 <path d="m176 66c5.0078 11.199.51455 34.741-1 46 .38634-15.314-1.1796-30.788 1-46z" fill="#7ddb9d"/>
 <path d="m245 378h30c-1.961 11.101-31.785-8.2577-27 10-3.5918-2.3868-2.9593-6.5099-3-10z" fill="#205326"/>
 <path d="m319 391c3.0102 9.5714-17.974-6.6135-16 8 15.952.7611 5.8025 2.8359-4.1421 2-7.596-7.1898 14.136-13.598 20.142-10z" fill="#7fdb9e"/>
 <path d="m230.62 154.94c9.4445 7.5859 17.655 2.3873 8.4765 11.639.18141 26.004-6.4358-24.098-24.101-14.577 5.3385-1.4627 11.256-.5956 15.625 2.9375z" fill="#0c4515"/>
 <path d="m138 271c11.11-.0488 2.8485 29.921-.73535 11.766.24512-3.9219.49023-7.8438.73535-11.766z" fill="#0e3513"/>
 <path d="m279 149c-.99439 5.0445 4.4824 16.202-8.2774 10.613-2.8622-5.4607 5.5563-7.1327 8.2774-10.613z" fill="#7de1a0"/>
 <path d="m292 384c11.799 1.9686-4.4581 19.812-1.4142 7-11.723.0292-17.166.45377-.71079-4.5625l2.125-2.4375z" fill="#103511"/>
 <path d="m327 363c8.9481 10.433-10.743 25.815-4.6232 7.5671l2.1726-3.7816z" fill="#0e310e"/>
 <path d="m357 383c-6.5986.11996-21.45 8.1498-27 9 5.4671-9.9269 17.088-10.484 27-9z" fill="#7dd598"/>
 <path d="m85 202c-11.043 7.8005-5.5913 45.157-10.383 15.709-.63198-6.4076 1.8517-17.117 10.383-15.709z" fill="#81db9f"/>
 <path d="m326 413c4.1094 12.971-17.484 20.733-4.2227 3.7826l2.0615-1.9194z" fill="#0c3b10"/>
 <path d="m275 380c8.5252 3.3393-22.512 33.899-8.9469 14.11 7.7404-3.218 3.2772-11.248 8.9469-14.11z" fill="#092606"/>
 <path d="m80 233c2.2912 7.6088-11.599 18.799-11 24-5.664-15.404 12.899-13.527 11-24z" fill="#7bd49a"/>
 <path d="m83 217c11.261 1.647 59.438 5.441 24.731 5.0918-7.9006-.74166-18.897-.65298-24.731-5.0918z" fill="#73c78d"/>
 <path d="m293 149c16.611 4.9877-10.872 5.6692-14.265 15.368-10.446-4.1473 13.324-11.147 14.265-15.368z" fill="#124f1c"/>
 <path d="m88 232c8.5902 5.9886 48.644 4.6181 19.331 6.2025-3.7724.77748-25.002-.86695-19.331-6.2025z" fill="#6bc186"/>
 <path d="m329 387c-6.145-.43803-18.05 21.113-10 4-11.361.78156-18.517-1.4803-3-1-1.5368-5.7448 10.667-.84085 13-3z" fill="#194a22"/>
 <path d="m431 326c8.2556 7.4906-4.3883 35.165-.55661 11.514.17134-3.8386.3848-7.6751.55661-11.514z" fill="#1b4b22"/>
 <path d="m366 200c-3.4114 2.7104-1.4156 13.856-10 1 3.143-.90551 6.6849-3.5176 10-1z" fill="#124117"/>
 <path d="m204 100c9.7204-.80488-.20616 10.393.58579 17-3.8731-.14479 1.3368-13.338-.58579-17z" fill="#15431a"/>
 <path d="m319 72c.009 12.707-26.317 22.487-7 7 2.3333-2.3333 4.6667-4.6667 7-7z" fill="#08330d"/>
 <path d="m323 56c.59523 13.076-25.13 19.939-6.3833 6.2194l3.2305-3.0648z" fill="#7ddc9d"/>
 <path d="m115 143c2.6256 10.206-4.9958 8.052 0 2-14.487 14.83-10.641-3.8905 0-2z" fill="#84e1a8"/>
 <path d="m76 207c4.4043 7.5661-5.0866 36.423-2.5667 10.854.43491-3.7024 1.2833-7.3558 2.5667-10.854z" fill="#15431c"/>
 <path d="m258 88c11.67-3.2976 45.555 5.8441 15.801 1.7546-4.6355-1.1837-12.915.78777-15.801-1.7546z" fill="#194b1f"/>
 <path d="m289 248c1.7434 9.7892-21.188 14.056-2.9077 1.9932z" fill="#79d599"/>
 <path d="m176 66c3.7746 3.4316 3.4842 18.26-1 19-.0977-6.3412-.14893-12.735 1-19z" fill="#74cd92"/>
 <path d="m341 52c-2.6308 9.4962-26.584 22.327-7.1523 4.9766 2.2686-1.6296 3.7929-5.5132 7.1523-4.9766z" fill="#0c3b13"/>
 <path d="m343.5 357.88c9.1358 3.4312-2.9597 16.243.15836 4.1001-1.7962-1.68-10.298 2.1835-.15836-4.1001z" fill="#7cd699"/>
 <path d="m79.504 265.9c18.943.18788-8.1547.31459-.91812 10.098-3.98 1.6252-4.4458-12.807.91812-10.098z" fill="#0b3b11"/>
 <path d="m188 130c1.2445 16.602-19.148 26.922 0 0z" fill="#123e17"/>
 <path d="m278 391c14.915-5.35 12.418 9.9468 9.4142 5 8.4625-5.063-9.6346-2.0965-9.4142-5z" fill="#7ccf95"/>
 <path d="m87 235c10.682 2.3769 15.475.13077 6 6-3.5641-1.4553-7.4564-.80499-6-6z" fill="#124318"/>
 <path d="m307 219c5.2168 10.038-25.172 12.239-7.6195 5.6932 3.4541-.6076 7.323-1.3603 7.6195-5.6932z" fill="#77cd93"/>
 <path d="m134 235c5.2827 13.256-18.06 6.0456 0 0z" fill="#082b08"/>
 <path d="m325 109c1.0132 12.792 8.7997 7.315 9 8.8284 1.2416 10.214-14.959-3.3241-9-8.8284z" fill="#82d69d"/>
 <path d="m298 393c2.6677 3.434-1.8795 11.327 11.728 8 6.0958.73891-25.525 5.4427-11.728-8z" fill="#194921"/>
 <path d="m341 418c-3.014 14.395-17.125 12.217-1 1z" fill="#0f3c14"/>
 <path d="m352 403c6.9996 6.0956-15.229 13.414-3 5l.9375-1.9375z" fill="#78d395"/>
 <path d="m358 385c8.6165 7.4898-8.679 32.627-.58316 13.16.23278-4.3847.44705-8.7707.58316-13.16z" fill="#114219"/>
 <path d="m257 385c-1.5526 4.4237-4.8544 24.725-5 5 2.1489-.99252 5.4896-1.6942 5-5z" fill="#72c58b"/>
 <path d="m282 266c-3.7228 8.6868-19.118 15.757-4.9286 1.25l2.1696-1.0938z" fill="#0d3611"/>
 <path d="m124 266c11.345-2.8352 5.4939 21.512 4.3124 11.189 3.536-8.7331-3.8808-4.1882-4.3124-11.189z" fill="#1a4e22"/>
 <path d="m279 165c6.699 5.8262-2.4105 25.072-.77842 3.0808z" fill="#72c78e"/>
 <path d="m243 160c-1.9324-.0559-6.4848 28.28-6.7593 6.1297-2.1799-5.0059 4.1254-4.0626 6.7593-6.1297z" fill="#1a4720"/>
 <path d="m253 270c6.094 2.1637 8.9108 7.308 13 10.414-4.4203 1.0949-10.823-6.1382-13-10.414z" fill="#7dd298"/>
 <path d="m275 262c-6.3786 15.836-16.513 7.6892 0 0z" fill="#7bdf9f"/>
 <path d="m192 45c-1.0961 5.1596-22.149 5.7665-4.1516-.5932z" fill="#78cc91"/>
 <path d="m326 420c-7.7435 18.936-12.614-1.9108 0 0z" fill="#0a300b"/>
 <path d="m141 273c2.784 20.762-9.1764 8.6253 0 0z" fill="#032a04"/>
 <path d="m279 149c4.1691 4.9146-20.633 16.858-4.1141 2.8509z" fill="#76ca8f"/>
 <path d="m319 103c-6.7706 13.516-19.11 4.2591 0 0z" fill="#134218"/>
 <path d="m428 355c1.2433 14.13-14.511 15.468 0 0z" fill="#78d096"/>
 <path d="m283 351c1.5871 14.253-13.615 16.802 0 0z" fill="#7ad398"/>
 <path d="m121 251c8.7797 2.6913-1.4566 23.183-.1055 2.082l.10547-2.082z" fill="#7cd298"/>
 <path d="m350 393c6.6657 10.054-14.583 14.802-.77086 3.0413z" fill="#79d799"/>
 <path d="m312 384c17.305 7.95-14.357 7.4262 0 0z" fill="#103912"/>
 <path d="m302 356c6.3758 3.0772-13.979 21.152-1.9276 2.8717z" fill="#78d39a"/>
 <path d="m125 342c7.3394 1.6891-9.2487 20.242-3.0965 3.0317z" fill="#7cd298"/>
 <path d="m187 52c12.292 11.771 8.7276 10.003-1 3 .33333-1 .66667-2 1-3z" fill="#0b3b12"/>
 <path d="m437 308c8.4488 3.2196 2.628 27.237.875 5.75l-.50781-3.2656z" fill="#19481f"/>
 <path d="m361 310c7.0415 14.043-3.7082 18.096.23178 2.5496l-.12804-1.4084z" fill="#194f1f"/>
 <path d="m196 275c12.229-1.8754 6.222 19.298 3.628 2.657-5.0859-.44152-3.2222 5.9572-3.628-2.657z" fill="#84d89f"/>
 <path d="m350 251c-16.772 11.039-20.345 1.9873 0 0z" fill="#7bd296"/>
 <path d="m268 212c6.3538 8.5349-8.2244 19.83 0 0z" fill="#76ce91"/>
 <path d="m327 80c2.497 9.311-18.641 14.949-4.1372 3.1378z" fill="#7cd598"/>
 <path d="m334 404c14.982 6.6554-11.463 8.1646-1.3786 1.6543l.90536-1.0864z" fill="#17471d"/>
 <path d="m87 391c8.585 8.3591-.33249 22.072.14844 2.5195l-.08317-1.4118z" fill="#7ad297"/>
 <path d="m163 274c10.877 1.667-16.425 18.065 0 0z" fill="#123c15"/>
 <path d="m299 264c-9.2868 8.8517-16.641 3.7138-2.7783-.74123z" fill="#78ce96"/>
 <path d="m270 215c6.6071 8.5777-18.388 22.144-2.8606 6.7651l1.6825-3.1021z" fill="#0e3d14"/>
 <path d="m295 96c10.843 7.6696-26.472 7.5026-4.993 4.9971l2.9305-2.4971z" fill="#09320c"/>
 <path d="m342 404c1.3292 10.85-15.515 12.92 0 0z" fill="#77d398"/>
 <path d="m333 352c9.1396 6.8534-12.436 17.044-1.0761 3.763z" fill="#0c360f"/>
 <path d="m236 335c7.5336 9.0136 1.2702 23.016.0129 4.2244z" fill="#74c58d"/>
 <path d="m136 281c5.81 8.0147-7.4735 19.141-.81659 3.2376z" fill="#7dd79a"/>
 <path d="m88 247c-9.3467-2.543-12.389 19.366-10 1.0625l4.8537-1.2494z" fill="#0e4114"/>
 <path d="m183 235c3.0921 8.0325-14.725 11.497-2 4 .66667-1.3333 1.3333-2.6667 2-4z" fill="#164a1e"/>
 <path d="m142 232c7.481 4.5945-2.0619 18.911 0 2.5147v-1.4142z" fill="#114319"/>
 <path d="m215 174c-1.582 7.9143 20.473 11.519 0 7l-.0937-3.5938z" fill="#1b5024"/>
 <path d="m326 61c7.7468 6.1098-15.028 12.235 0 0z" fill="#79d598"/>
 <path d="m341 401c3.0818 12.191-15.515 2.2235 0 0z" fill="#0b2806"/>
 <path d="m275 380c6.3547 2.2848-8.6625 17.727-3.0625 4.9375-1.7538-3.1586 1.5482-3.5648 3.0625-4.9375z" fill="#1c4921"/>
 <path d="m173 201c6.3627-.61399-1.3455 5.2858 0 0zm-2 2c4.7372 5.2548-13.795 11.812 0 0z" fill="#81eda9"/>
 <path d="m213 189c13.831-1.6833 1.1552 14.491 3.6869 2.4748-.88035-.96905-4.3451-.51877-3.6869-2.4748z" fill="#062c06"/>
 <path d="m336 44c23.452-2.8877-11.441 9.9145 0 0z" fill="#76c78f"/>
 <path d="m329 430c-5.0556 15.381-14.87 10.78 0 0z" fill="#0f3f15"/>
 <path d="m122 355c8.0876 4.6163-.00089 21.281 0 0z" fill="#71c88b"/>
 <path d="m327 350c8.9893.85097-15.498 15.134 0 0z" fill="#6fbf89"/>
 <path d="m151 268c6.3691 7.1592-5.4507 18.896 0 0z" fill="#1a5624"/>
 <path d="m331 232c-5.7006 5.105-18.321 6.919-5.043-.22266l2.1626-.55517z" fill="#80db9d"/>
 <path d="m214 154c-6.8654 13.077-15.977 7.1334 0 0z" fill="#7ed79a"/>
 <path d="m214 154c-16.478 16.599-10.413-2.6758 0 0z" fill="#103e13"/>
 <path d="m307 99c1.7841 16.069-10.926 10.921 0 0z" fill="#6bb07e"/>
 <path d="m298 397c10.784 4.3879 20.523 3.6578 3.6863 4-4.3715.22202-5.6011.75247-3.6863-4z" fill="#7dce95"/>
 <path d="m245 384c6.7838 8.3334-.6997 19.259 0 0z" fill="#7bd396"/>
 <path d="m152 267c11.791-3.2361-1.9319 14.97 0 0z" fill="#08320a"/>
 <path d="m105 266c21.39 2.2134-3.5857 9.4096 0 0z" fill="#012f03"/>
 <path d="m99 248c3.703 13.343-8.1456 22.43 0 0z" fill="#67ba7e"/>
 <path d="m184 248c-2.8687 15.033-14.044 11.277 0 0z" fill="#13411b"/>
 <path d="m180 205c6.1792 12.923-11.805 8.2141 0 0z" fill="#0c3e14"/>
 <path d="m174 183c4.7304 9.9614-13.532 10.725 0 0z" fill="#0e3d13"/>
 <path d="m362 162c6.5061 8.2515-23.202 3.37-1 2l.63246-1.2649z" fill="#124319"/>
 <path d="m253 387c3.5507 8.913-7.8957 16.541-1.7656 2.1406z" fill="#042c08"/>
 <path d="m321 359c5.3524 6.661-16.735 12.213 0 0z" fill="#78d79a"/>
 <path d="m355 336c-.54266 6.9243-16.341-4.1302 0 0z" fill="#195123"/>
 <path d="m69 308c1.8456 10.845-12.042 16.921 0 0z" fill="#80d89d"/>
 <path d="m92 252c5.6687 11.797-24.085 5.2021-2.1412 5.1037 2.3631.43274 1.2653-3.7604 2.1412-5.1037z" fill="#67b980"/>
 <path d="m226 239c10.868 6.644 1.6279 15.337 0 0z" fill="#113d16"/>
 <path d="m133 236c-12.042 7.9949-21.7-2.9479 0 0z" fill="#17481e"/>
 <path d="m332.44 222.25c.16277 8.7054-19.432 3.3965 0 0z" fill="#79d697"/>
 <path d="m84 218c11.514 3.3896 1.2137 16.906 0 0z" fill="#09270a"/>
 <path d="m283 158c-1.1929 13.499-15.252.55312 0 0z" fill="#0c3f13"/>
 <path d="m286 156c11.288.62147-15.089 13.402 0 0z" fill="#7fe09f"/>
 <path d="m325 100c4.6443 14.975-12.512-2.5582 0 0z" fill="#09340a"/>
 <path d="m335 381c9.0659 10.568-11.109 5.4725 0 0z" fill="#103c11"/>
 <path d="m321 373c9.8716 7.7728-3.0255 11.171 0 0z" fill="#185120"/>
 <path d="m428 352c3.4767 6.7843-10.287 13.348-1.8281 2.8984z" fill="#0d3812"/>
 <path d="m396 321c-12.103 9.6992-12.57-2.1691 0 0z" fill="#78d198"/>
 <path d="m138 271c8.9616-.8361 1.5484 22.065 2.063 3.5666-2.0858-1.1026-2.391.24215-2.063-3.5666z" fill="#184e1f"/>
 <path d="m78 232c8.1833 2.4762-6.5545 17.291 0 0z" fill="#08320c"/>
 <path d="m311 182c3.6398 10.456-14.819 9.9977 0 0z" fill="#19471e"/>
 <path d="m306 136c3.4806 10.428-12.03 8.3857 0 0z" fill="#75cb90"/>
 <path d="m354 405c1.9189 8.8571-13.242 8.9899-1 1z" fill="#09310b"/>
 <path d="m333 380c6.2841 4.0449-15.297 12.595 0 0z" fill="#81d89e"/>
 <path d="m72 280c20.659 5.8232 2.3072 8.1734 0 0z" fill="#73c78b"/>
 <path d="m281 231c4.401 5.3446-12.988 15.283 0 0z" fill="#78d297"/>
 <path d="m351.31 212.31c3.1 6.218-16.853 3.4817 0 0z" fill="#77ce93"/>
 <path d="m342 396c1.9189 8.8571-13.242 8.9899-1 1z" fill="#104214"/>
 <path d="m337 363c1.1527 9.7932-10.305 12.432 0 0z" fill="#70c88d"/>
 <path d="m309 358c3.7996 10.471-10.378 7.6866 0 0z" fill="#81dea2"/>
 <path d="m267 253c3.7729 9.4846-14.455 3.7772 0 0z" fill="#6fd190"/>
 <path d="m182 248c5.7897 2.7576-9.8824 10.36-3 5l.9375-1.9375z" fill="#7ad398"/>
 <path d="m208 227c15.708 5.5493-4.817 9.2531 0 0z" fill="#155220"/>
 <path d="m230 210c8.5467 3.0205-9.4349 11.656 0 0z" fill="#7bd69c"/>
 <path d="m170 183c7.6412 2.3843-8.6016 10.699 0 .17157z" fill="#74cb8e"/>
 <path d="m371 174c-7.6577 9.9676-15.038-3.2067 0 0z" fill="#154f1f"/>
 <path d="m363 162c10.083 3.2696-12.146 8.383 0 1.5858v-1.4142z" fill="#76d295"/>
 <path d="m226 152c-.13887 5.6273-23.9-3.3906 0 0z" fill="#063a0c"/>
 <path d="m269 391c-4.0996 13.634-11.29 7.2736 0 0z" fill="#11441c"/>
 <path d="m343 344c18.12 1.7341 6.3191 6.8477 0 0z" fill="#73cb90"/>
 <path d="m292 337c5.8918 3.5955-10.86 9.9148-.10263.20527z" fill="#09330c"/>
 <path d="m342 255c-2.6428 8.0878-14.237.59626 0 0z" fill="#11401a"/>
 <path d="m128 249c11-4.6018-4.2643 22.176 0 0z" fill="#7ad798"/>
 <path d="m197 234c23.399-1.865-1.5817 8.208 0 0z" fill="#7dd899"/>
 <path d="m289 222c9.6061 2.9168-13.727 11.573 0 0z" fill="#79d797"/>
 <path d="m349.19 194.38c1.7901 2.9162-14.523 10.192-2.2891-.0781z" fill="#72be8b"/>
 <path d="m179 178c11.5.37463-11.683 9.1163 0 0z" fill="#072e09"/>
 <path d="m156 165c7.2603 8.1244.34095 13.707 0 0z" fill="#7bcf95"/>
 <path d="m301 86c9.3615-.15375-9.4268 12.695 0 0z" fill="#79d298"/>
</svg>
